<svg width="25" height="25" viewBox="0 0 25 25" fill="none" xmlns="http://www.w3.org/2000/svg">
<g clip-path="url(#clip0_37_4)">
<path d="M6.66992 6.77686C6.17952 6.91547 5.73046 7.1719 5.36187 7.52381C4.99327 7.87573 4.71633 8.31244 4.55518 8.7959L0 22.4609L0.717285 23.1782L8.04688 15.8486C7.90088 15.543 7.8125 15.2051 7.8125 14.8438C7.8125 13.5493 8.86182 12.5 10.1562 12.5C11.4507 12.5 12.5 13.5493 12.5 14.8438C12.5 16.1382 11.4507 17.1875 10.1562 17.1875C9.79492 17.1875 9.45703 17.0991 9.15137 16.9531L1.82178 24.2827L2.53906 25L16.2041 20.4448C16.6876 20.2837 17.1243 20.0067 17.4762 19.6381C17.8281 19.2695 18.0845 18.8205 18.2231 18.3301L20.3125 10.9375L14.0625 4.6875L6.66992 6.77686ZM24.3135 3.62158L21.3784 0.686523C20.4629 -0.229004 18.978 -0.229004 18.0625 0.686523L15.3013 3.44775L21.5522 9.69873L24.3135 6.9375C25.229 6.02197 25.229 4.5376 24.3135 3.62158V3.62158Z" fill="#7158CD"/>
</g>
<defs>
<clipPath id="clip0_37_4">
<rect width="25" height="25" fill="white"/>
</clipPath>
</defs>
</svg>
