<svg width="124" height="124" viewBox="0 0 124 124" fill="none" xmlns="http://www.w3.org/2000/svg">
<rect width="124" height="124" rx="12" fill="#E22145"/>
<path d="M21.396 43.1341L29.2298 50.9678C30.0284 51.7665 31.3199 51.7665 32.1186 50.9678L50.9808 32.1057C51.7794 31.3071 51.7794 30.0156 50.9808 29.217L43.147 21.3832C39.9693 18.2056 34.8035 18.2056 31.6088 21.3832L21.396 31.596C18.2013 34.7736 18.2013 39.9395 21.396 43.1341ZM57.71 35.9461L102.334 80.5694L105.936 101.216C106.429 104.003 103.999 106.416 101.212 105.94L80.5655 102.32L35.942 57.697C35.1433 56.8983 35.1433 55.6069 35.942 54.8082L54.8042 35.9461C55.6199 35.1475 56.9113 35.1475 57.71 35.9461V35.9461ZM84.9157 76.746C85.8504 75.8114 85.8504 74.316 84.9157 73.3814L58.7466 47.2124C57.8119 46.2778 56.3166 46.2778 55.382 47.2124C54.4473 48.147 54.4473 49.6424 55.382 50.577L81.5511 76.746C82.4858 77.6806 83.9811 77.6806 84.9157 76.746V76.746ZM91.0502 91.037H82.8936V97.2054L93.8541 99.1256L99.1389 93.8408L97.2187 82.8804H91.0502V91.037Z" fill="white"/>
</svg>
