<svg width="26" height="26" viewBox="0 0 26 26" fill="none" xmlns="http://www.w3.org/2000/svg">
<path d="M25.067 21.762L20.1989 16.8938C19.9792 16.6741 19.6813 16.552 19.3688 16.552H18.5729C19.9206 14.8284 20.7213 12.6604 20.7213 10.302C20.7213 4.6917 16.1754 0.145798 10.5651 0.145798C4.95474 0.145798 0.408844 4.6917 0.408844 10.302C0.408844 15.9124 4.95474 20.4583 10.5651 20.4583C12.9235 20.4583 15.0915 19.6575 16.8151 18.3099V19.1058C16.8151 19.4183 16.9372 19.7161 17.1569 19.9358L22.0251 24.804C22.484 25.263 23.2262 25.263 23.6803 24.804L25.0622 23.4222C25.5211 22.9632 25.5211 22.221 25.067 21.762ZM10.5651 16.552C7.11295 16.552 4.31509 13.7591 4.31509 10.302C4.31509 6.8499 7.10806 4.05205 10.5651 4.05205C14.0172 4.05205 16.8151 6.84502 16.8151 10.302C16.8151 13.7542 14.0221 16.552 10.5651 16.552Z" fill="#D9D9D9"/>
</svg>
